<?xml version="1.0" standalone="no"?>
<!DOCTYPE svg PUBLIC "-//W3C//DTD SVG 20010904//EN"
 "http://www.w3.org/TR/2001/REC-SVG-20010904/DTD/svg10.dtd">
<svg version="1.0" xmlns="http://www.w3.org/2000/svg"
 width="547.000000pt" height="547.000000pt" viewBox="0 0 547.000000 547.000000"
 preserveAspectRatio="xMidYMid meet">
<metadata>
Created by potrace 1.14, written by Peter Selinger 2001-2017
</metadata>
<g transform="translate(0.000000,547.000000) scale(0.100000,-0.100000)"
fill="#000000" stroke="none">
<path d="M0 2735 l0 -2585 2735 0 2735 0 0 2585 0 2585 -2735 0 -2735 0 0
-2585z m5220 -5 l0 -1930 -1935 0 -1935 0 0 345 0 345 100 0 100 0 0 -250 0
-250 1735 0 1735 0 0 1740 0 1740 -1735 0 -1735 0 0 -250 0 -250 -100 0 -100
0 0 345 0 345 1935 0 1935 0 0 -1930z m-1474 1125 c179 -31 312 -127 372 -270
44 -103 54 -165 59 -352 l5 -183 -189 0 -190 0 -6 183 c-7 200 -16 244 -62
292 -66 70 -217 74 -296 7 -79 -65 -89 -160 -89 -812 1 -618 9 -700 78 -774
38 -40 84 -57 157 -57 165 0 203 66 212 369 l6 182 188 0 189 0 0 -141 c0
-413 -113 -611 -390 -686 -89 -24 -318 -24 -410 1 -146 38 -258 117 -323 228
-35 60 -71 173 -88 278 -20 120 -20 1120 -1 1230 38 210 97 324 211 410 126
95 349 132 567 95z m-2700 -30 c226 -38 365 -165 409 -370 17 -81 20 -248 5
-325 -28 -148 -110 -247 -244 -296 l-61 -22 64 -17 c207 -59 321 -247 321
-530 -1 -268 -104 -482 -276 -568 -133 -66 -225 -77 -651 -77 l-333 0 0 1110
0 1110 339 0 c256 0 360 -4 427 -15z m1694 -125 l0 -140 -265 0 -265 0 0 -320
0 -320 210 0 210 0 0 -140 0 -140 -210 0 -210 0 0 -370 0 -370 265 0 265 0 0
-140 0 -140 -465 0 -465 0 0 1110 0 1110 465 0 465 0 0 -140z"/>
<path d="M680 3248 l0 -321 123 7 c142 8 183 18 232 58 48 40 71 88 85 182 19
126 -1 244 -51 300 -47 54 -106 76 -233 86 -61 6 -121 10 -133 10 l-23 0 0
-322z"/>
<path d="M680 2279 l0 -382 135 5 c123 5 140 8 192 34 104 52 143 144 143 339
-1 292 -93 385 -383 385 l-87 0 0 -381z"/>
</g>
</svg>
